# This file uses centimeters as units for non-parametric coordinates.

v -0.187464 -0.125000 0.790627
v 0.187464 -0.125000 0.790627
v -0.134903 0.000000 0.790627
v 0.134903 0.000000 0.790627
v -0.084330 0.125000 0.790627
v 0.084330 0.125000 0.790627
v -0.084330 0.125000 -0.790627
v 0.084330 0.125000 -0.790627
v -0.134903 0.000000 -0.790627
v 0.134903 0.000000 -0.790627
v -0.187463 -0.125000 -0.790627
v 0.187463 -0.125000 -0.790627
v 0.012685 -0.125000 0.790627
v 0.012685 -0.125000 -0.790627
v 0.009129 0.000000 -0.790627
v 0.009768 0.125000 -0.790627
v 0.009768 0.125000 0.790627
v 0.009129 0.000000 0.790627
v -0.009129 0.000000 0.790627
v -0.009768 0.125000 0.790627
v -0.009768 0.125000 -0.790627
v -0.009129 0.000000 -0.790627
v -0.012685 -0.125000 -0.790627
v -0.012685 -0.125000 0.790627
vt 0.360330 0.972950
vt 0.294172 0.972950
vt 0.360330 0.001942
vt 0.294172 0.001942
vt 0.426488 0.001942
vt 0.426488 0.972950
vt 0.029579 0.001942
vt 0.095737 0.001942
vt 0.029578 0.972950
vt 0.095737 0.972950
vt -0.036580 0.001942
vt -0.036580 0.972950
vt -0.076042 0.001942
vt -0.076043 0.972950
vt -0.142201 0.001942
vt -0.142201 0.972950
vt 0.532109 0.972950
vt 0.465951 0.972950
vt 0.532109 0.001942
vt 0.465951 0.001942
vt 0.188241 0.001942
vt 0.188241 0.972950
vt 0.201668 0.972950
vt 0.201668 0.001942
vt -0.151863 0.972950
vt -0.151863 0.001942
vt 0.123555 1.039108
vt 0.190123 1.039108
vt 0.199786 1.039108
vt 0.150321 1.105266
vt 0.189784 1.105266
vt 0.266354 1.039108
vt 0.239587 1.105266
vt 0.200124 1.105266
vt 0.189784 -0.130374
vt 0.190123 -0.064216
vt 0.150321 -0.130374
vt 0.123555 -0.064216
vt 0.199786 -0.064216
vt 0.266354 -0.064216
vt 0.239587 -0.130374
vt 0.200124 -0.130374
vn 0.000000 0.000000 1.000000
vn 0.000000 0.000000 1.000000
vn 0.000000 0.000000 1.000000
vn 0.000000 0.000000 1.000000
vn 0.000000 0.000000 1.000000
vn 0.000000 0.000000 1.000000
vn 0.000000 0.000000 1.000000
vn 0.000000 0.000000 1.000000
vn 0.000000 0.000000 1.000000
vn 0.000000 0.000000 1.000000
vn 0.000000 0.000000 1.000000
vn 0.000000 0.000000 1.000000
vn 0.000000 1.000000 -0.000000
vn 0.000000 1.000000 -0.000000
vn 0.000000 1.000000 -0.000000
vn 0.000000 1.000000 0.000000
vn 0.000000 1.000000 -0.000000
vn 0.000000 1.000000 0.000000
vn 0.000000 1.000000 -0.000000
vn 0.000000 1.000000 0.000000
vn 0.000000 0.000000 -1.000000
vn 0.000000 0.000000 -1.000000
vn 0.000000 0.000000 -1.000000
vn 0.000000 0.000000 -1.000000
vn 0.000000 0.000000 -1.000000
vn 0.000000 0.000000 -1.000000
vn 0.000000 0.000000 -1.000000
vn 0.000000 0.000000 -1.000000
vn 0.000000 0.000000 -1.000000
vn 0.000000 0.000000 -1.000000
vn 0.000000 0.000000 -1.000000
vn 0.000000 0.000000 -1.000000
vn 0.000000 -1.000000 0.000000
vn 0.000000 -1.000000 0.000000
vn 0.000000 -1.000000 0.000000
vn 0.000000 -1.000000 0.000000
vn 0.000000 -1.000000 0.000000
vn 0.000000 -1.000000 -0.000000
vn 0.000000 -1.000000 -0.000000
vn 0.000000 -1.000000 0.000000
vn 0.924428 0.381358 -0.000000
vn 0.921824 0.387609 -0.000000
vn 0.924428 0.381358 -0.000000
vn 0.921824 0.387609 -0.000000
vn 0.927003 0.375054 -0.000000
vn 0.927003 0.375054 -0.000000
vn -0.924428 0.381358 0.000000
vn -0.921824 0.387609 -0.000000
vn -0.924428 0.381358 -0.000000
vn -0.921824 0.387609 -0.000000
vn -0.927003 0.375054 -0.000000
vn -0.927003 0.375054 -0.000000
vn 0.988765 0.149476 0.000000
vn -0.988765 0.149476 0.000000
vn 0.988765 0.149476 0.000000
vn -0.988765 0.149476 0.000000
vn 0.999987 0.005116 0.000000
vn 0.999987 0.005116 0.000000
vn -0.999987 0.005116 0.000000
vn -0.999987 0.005116 0.000000
f 1/10/1 24/22/2 3/27/3
f 3/27/3 24/22/2 19/28/4
f 18/29/5 13/23/6 4/32/7
f 4/32/7 13/23/6 2/2/8
f 3/27/3 19/28/4 5/30/9
f 5/30/9 19/28/4 20/31/10
f 4/32/7 6/33/11 18/29/5
f 18/29/5 6/33/11 17/34/12
f 21/13/13 7/11/14 20/14/15
f 20/14/15 7/11/14 5/12/16
f 6/6/17 8/5/18 17/18/19
f 17/18/19 8/5/18 16/20/20
f 21/35/21 22/36/22 7/37/23
f 7/37/23 22/36/22 9/38/24
f 16/42/25 8/41/26 15/39/27
f 15/39/27 8/41/26 10/40/28
f 22/36/22 23/21/29 9/38/24
f 9/38/24 23/21/29 11/8/30
f 15/39/27 10/40/28 14/24/31
f 14/24/31 10/40/28 12/4/32
f 23/21/33 24/22/34 11/8/35
f 11/8/35 24/22/34 1/10/36
f 12/4/37 2/2/38 14/24/39
f 14/24/39 2/2/38 13/23/40
f 4/1/41 2/2/42 10/3/43
f 10/3/43 2/2/42 12/4/44
f 6/6/45 4/1/41 8/5/46
f 8/5/46 4/1/41 10/3/43
f 9/7/47 11/8/48 3/9/49
f 3/9/49 11/8/48 1/10/50
f 5/12/51 7/11/52 3/9/49
f 3/9/49 7/11/52 9/7/47
f 14/24/31 23/21/29 15/39/27
f 15/39/27 23/21/29 22/36/22
f 14/24/39 13/23/40 23/21/33
f 23/21/33 13/23/40 24/22/34
f 19/28/4 24/22/2 18/29/5
f 18/29/5 24/22/2 13/23/6
f 19/16/53 18/25/54 22/15/55
f 22/15/55 18/25/54 15/26/56
f 21/13/57 20/14/58 22/15/55
f 22/15/55 20/14/58 19/16/53
f 18/17/54 17/18/59 15/19/56
f 15/19/56 17/18/59 16/20/60
v -0.005000 0.016199 0.750000
v 0.005000 0.016199 0.750000
v -0.005000 1.516199 0.750000
v 0.005000 1.516199 0.750000
v -0.005000 1.516199 -0.750000
v 0.005000 1.516199 -0.750000
v -0.005000 0.016199 -0.750000
v 0.005000 0.016199 -0.750000
vt 0.375000 0.000000
vt 0.625000 0.000000
vt 0.375000 0.250000
vt 0.625000 0.250000
vt 0.375000 0.500000
vt 0.625000 0.500000
vt 0.375000 0.750000
vt 0.625000 0.750000
vt 0.375000 1.000000
vt 0.625000 1.000000
vt 0.875000 0.000000
vt 0.875000 0.250000
vt 0.125000 0.000000
vt 0.125000 0.250000
vn 0.000000 0.000000 1.000000
vn 0.000000 0.000000 1.000000
vn 0.000000 0.000000 1.000000
vn 0.000000 0.000000 1.000000
vn 0.000000 1.000000 0.000000
vn 0.000000 1.000000 0.000000
vn 0.000000 1.000000 0.000000
vn 0.000000 1.000000 0.000000
vn 0.000000 0.000000 -1.000000
vn 0.000000 0.000000 -1.000000
vn 0.000000 0.000000 -1.000000
vn 0.000000 0.000000 -1.000000
vn 0.000000 -1.000000 0.000000
vn 0.000000 -1.000000 0.000000
vn 0.000000 -1.000000 0.000000
vn 0.000000 -1.000000 0.000000
vn 1.000000 0.000000 0.000000
vn 1.000000 0.000000 0.000000
vn 1.000000 0.000000 0.000000
vn 1.000000 0.000000 0.000000
vn -1.000000 0.000000 0.000000
vn -1.000000 0.000000 0.000000
vn -1.000000 0.000000 0.000000
vn -1.000000 0.000000 0.000000
f 25/43/61 26/44/62 28/46/63 27/45/64
f 27/45/65 28/46/66 30/48/67 29/47/68
f 29/47/69 30/48/70 32/50/71 31/49/72
f 31/49/73 32/50/74 26/52/75 25/51/76
f 26/44/77 32/53/78 30/54/79 28/46/80
f 31/55/81 25/43/82 27/45/83 29/56/84
v 0.008211 1.459753 -0.669420
v 0.009575 1.260963 -0.756109
v 0.009575 1.487844 -0.756270
v 0.009575 1.487844 -0.770573
v 0.009575 1.560963 -0.699725
v -0.009575 1.560963 -0.699725
v -0.009575 1.487844 -0.770573
v 0.009575 1.525221 -0.470573
v -0.009575 1.525107 -0.470573
v -0.041057 1.525221 -0.699725
v -0.009575 1.525221 -0.770573
v 0.009575 1.525221 -0.770573
v 0.041057 1.525221 -0.699725
v 0.041057 1.487844 -0.756109
v 0.041057 1.525221 -0.756109
v 0.009575 1.560963 -0.756109
v -0.009575 1.560963 -0.756109
v -0.041057 1.525221 -0.756109
v -0.041057 1.487844 -0.756109
v -0.009575 1.260963 -0.755870
v -0.008211 1.459753 -0.669420
v 0.008119 1.524057 -0.699727
v 0.009389 1.524007 -0.756275
v -0.008211 1.524538 -0.699725
v -0.008211 1.487844 -0.755632
v -0.008211 1.524509 -0.755632
v 0.009464 1.487844 -0.489203
v 0.009575 1.506474 -0.470573
v 0.009463 1.279592 -0.699725
v 0.009575 1.260963 -0.718355
v -0.009464 1.487844 -0.489203
v -0.009575 1.506474 -0.470573
v -0.009463 1.279592 -0.699725
v -0.009575 1.260963 -0.718355
v -0.009575 1.560963 -0.477805
v -0.009575 1.553731 -0.470573
v -0.009575 1.268194 -0.770573
v -0.009575 1.260963 -0.763342
v 0.009575 1.268194 -0.770573
v 0.009575 1.260963 -0.763342
v 0.009575 1.553731 -0.470573
v 0.009575 1.560963 -0.477805
v -0.009575 1.546499 -0.770573
v 0.009575 1.546499 -0.770573
v 0.041057 1.487844 -0.758229
v 0.028713 1.487844 -0.770573
v 0.041057 1.273307 -0.758229
v 0.028713 1.268194 -0.770573
v -0.028713 1.487844 -0.770573
v -0.041057 1.487844 -0.758229
v -0.041057 1.273307 -0.758229
v -0.028713 1.268194 -0.770573
v 0.041057 1.470579 -0.680117
v 0.028713 1.459753 -0.669420
v 0.041057 1.499421 -0.495084
v 0.028713 1.487844 -0.489203
v 0.041057 1.285531 -0.711243
v 0.028713 1.279592 -0.699725
v -0.028713 1.560963 -0.699725
v -0.041057 1.548619 -0.699725
v -0.041057 1.548619 -0.750996
v -0.028713 1.560963 -0.756109
v 0.041057 1.548619 -0.699725
v 0.028713 1.560963 -0.699725
v 0.028713 1.560963 -0.756109
v 0.041057 1.548619 -0.750996
v 0.041057 1.525221 -0.482918
v 0.028713 1.525221 -0.470573
v 0.041057 1.548618 -0.482918
v 0.028713 1.553731 -0.470573
v -0.028713 1.525176 -0.470573
v -0.041057 1.525221 -0.482918
v -0.041057 1.548618 -0.482918
v -0.028713 1.553731 -0.470573
v -0.028713 1.525221 -0.770573
v -0.041057 1.525221 -0.758229
v 0.041057 1.525221 -0.758229
v 0.028713 1.525221 -0.770573
v 0.041057 1.273307 -0.756109
v 0.028713 1.260963 -0.756109
v 0.041057 1.273307 -0.723468
v 0.028713 1.260963 -0.718355
v -0.028713 1.260963 -0.756015
v -0.041057 1.273307 -0.756109
v -0.041057 1.273307 -0.723468
v -0.028713 1.260963 -0.718355
v 0.041057 1.511587 -0.482918
v 0.028713 1.506474 -0.470573
v -0.041057 1.511587 -0.482918
v -0.028713 1.506474 -0.470573
v -0.028713 1.459753 -0.669420
v -0.041057 1.470579 -0.680117
v -0.041057 1.499421 -0.495084
v -0.028713 1.487844 -0.489203
v -0.041057 1.285531 -0.711243
v -0.028713 1.279592 -0.699725
v -0.028713 1.560963 -0.477805
v -0.028713 1.260963 -0.763342
v 0.028713 1.260963 -0.763342
v 0.028713 1.560963 -0.477805
v -0.041057 1.541386 -0.758229
v -0.028713 1.546499 -0.770573
v 0.041057 1.541386 -0.758229
v 0.028713 1.546499 -0.770573
v 0.041057 1.375124 -0.695680
v 0.041057 1.375124 -0.756109
v 0.041057 1.375124 -0.758229
v 0.028713 1.375124 -0.770573
v 0.009575 1.375124 -0.770573
v -0.009575 1.375124 -0.770573
v -0.028713 1.375124 -0.770573
v -0.041057 1.375124 -0.758229
v -0.041057 1.375124 -0.756109
v -0.041057 1.375124 -0.695680
v -0.028713 1.375124 -0.684573
v -0.008837 1.375124 -0.684573
v -0.008893 1.375124 -0.755751
v 0.009575 1.375124 -0.756189
v 0.008837 1.375124 -0.684573
v 0.028713 1.375124 -0.684573
v 0.041057 1.402030 -0.705552
v 0.041057 1.402029 -0.742051
v 0.041057 1.451178 -0.740553
v 0.041057 1.446942 -0.700036
v 0.041057 1.422852 -0.687898
v 0.041057 1.424337 -0.694640
v 0.041057 1.430221 -0.749962
v 0.041057 1.431484 -0.756109
v 0.041057 1.375124 -0.725894
v 0.041057 1.395810 -0.725124
v 0.041057 1.460359 -0.718809
v 0.041057 1.479212 -0.718113
vt 0.000000 1.000000
vt 0.000000 0.000000
vt 1.000000 0.000000
vt 1.000000 1.000000
vt 0.000000 1.000000
vt 1.000000 0.000000
vt 1.000000 1.000000
vt 0.000000 1.000000
vt 0.000000 0.000000
vt 0.918702 0.000000
vt 1.000000 0.498432
vt 1.000000 1.000000
vt 1.000000 0.082103
vt 0.917888 -0.000000
vt 0.000036 0.312319
vt 1.000000 0.248489
vt 0.000000 1.000000
vt 0.000003 0.499954
vt 0.081298 0.000000
vt 1.000000 0.000000
vt 1.000000 1.000000
vt 0.000000 1.000000
vt 0.000000 0.000000
vt 0.917888 0.000000
vt 1.000000 0.331812
vt 1.000000 1.000000
vt 0.625000 0.560932
vt 0.625000 0.529785
vt 0.875000 0.189068
vt 0.875000 0.006026
vt 0.864713 0.010298
vt 0.868974 -0.000000
vt 0.375000 0.560932
vt 0.375000 0.529785
vt 0.125000 0.189068
vt 0.125000 0.006026
vt 0.648325 0.201401
vt 0.704993 0.305670
vt 0.831484 0.000000
vt 0.184041 0.250000
vt 0.368974 0.250000
vt 0.375000 0.440959
vt 0.375000 0.483686
vt 0.137054 0.250000
vt 0.815959 0.250000
vt 0.625000 0.440959
vt 0.625000 0.483686
vt 0.862946 0.250000
vt 0.875000 0.237947
vt 0.636854 0.210307
vt 0.635287 0.239713
vt 0.631026 0.250000
vt 0.364713 0.239713
vt 0.125000 0.220215
vt 0.125000 0.237947
vt 0.875000 0.220215
vt 0.864713 0.233686
vt 0.862946 0.000000
vt 0.625000 0.762054
vt 0.625000 0.789255
vt 0.137054 0.000000
vt 0.131026 0.000000
vt 0.375000 0.762054
vt 0.375000 0.789255
vt 0.168516 0.000000
vt 0.363146 0.210307
vt 0.184041 0.189068
vt 0.184041 0.015525
vt 0.351677 0.201401
vt 0.412582 0.440959
vt 0.470848 0.487946
vt 0.529152 0.440959
vt 0.587418 0.487946
vt 0.412582 0.762054
vt 0.470848 0.793450
vt 0.529152 0.762054
vt 0.587418 0.793516
vt 0.162687 0.011741
vt 0.171500 0.023201
vt 0.529152 0.204593
vt 0.587418 0.220215
vt 0.412582 0.204611
vt 0.470848 0.220215
vt 0.180415 0.193187
vt 0.412582 0.529785
vt 0.470848 0.560932
vt 0.529152 0.529785
vt 0.587418 0.560932
vt 0.819585 0.193187
vt 0.364713 0.220215
vt 0.184041 0.220215
vt 0.141314 0.239713
vt 0.815959 0.239713
vt 0.635287 0.220215
vt 0.815959 0.220215
vt 0.864713 0.189068
vt 0.862946 0.189068
vt 0.864713 0.220215
vt 0.858686 0.239713
vt 0.862946 0.220215
vt 0.135287 0.220215
vt 0.135287 0.233686
vt 0.135287 0.189068
vt 0.137054 0.220215
vt 0.137054 0.189068
vt 0.135287 0.010287
vt 0.137054 0.010287
vt 0.468081 0.189068
vt 0.279036 0.189068
vt 0.401803 0.758134
vt 0.436808 0.189068
vt 0.531947 0.758133
vt 0.720964 0.189068
vt 0.563192 0.189068
vt 0.598090 0.189068
vt 0.828500 0.023200
vt 0.837313 0.011740
vt 0.862946 0.010298
vt 0.587418 0.204593
vt 0.531919 0.189068
vt 0.529152 0.809041
vt 0.529152 0.793516
vt 0.587551 0.809041
vt 0.401910 0.189068
vt 0.470848 0.204640
vt 0.412582 0.793490
vt 0.468053 0.758133
vt 0.184041 0.239713
vt 0.412582 0.243981
vt 0.470848 0.256026
vt 0.412582 0.743974
vt 0.470848 0.755929
vt 0.587418 0.756026
vt 0.529152 0.743974
vt 0.587418 0.256026
vt 0.529152 0.243974
vt 0.470848 0.743974
vt 0.412582 0.560932
vt 0.587418 0.743974
vt 0.529152 0.560932
vt 0.470848 0.440959
vt 0.412582 0.256026
vt 0.587418 0.440959
vt 0.529152 0.256026
vt 0.529152 0.220215
vt 0.587418 0.243974
vt 0.412582 0.220215
vt 0.470848 0.243993
vt 0.529152 0.756026
vt 0.587418 0.762054
vt 0.412582 0.755988
vt 0.470848 0.762054
vt 0.412582 0.487946
vt 0.470848 0.512053
vt 0.587418 0.512053
vt 0.529152 0.487946
vt 0.412582 0.512053
vt 0.470848 0.529785
vt 0.529152 0.512053
vt 0.587418 0.529785
vt 0.824042 0.108193
vt 0.862946 0.099683
vt 0.864713 0.099683
vt 0.875000 0.097547
vt 0.587418 0.652453
vt 0.529152 0.652453
vt 0.470848 0.652453
vt 0.125000 0.097547
vt 0.412582 0.652453
vt 0.135287 0.099677
vt 0.137054 0.099677
vt 0.175958 0.108194
vt 0.184041 0.102296
vt 0.340420 0.473601
vt 0.452431 0.473601
vt 0.458944 0.000000
vt 0.500000 1.000000
vt 0.235424 0.881027
vt 0.500000 0.124245
vt 0.500018 0.280404
vt 0.547570 0.473601
vt 0.458944 -0.000000
vt 0.712978 0.247369
vt 0.824042 0.108193
vt 0.862946 0.099683
vt 0.862946 0.189068
vt 0.819585 0.193187
vt 0.821813 0.150690
vt 0.821841 0.150157
vt 0.862946 0.143891
vt 0.862946 0.144375
vt 0.843494 0.103938
vt 0.843258 0.103990
vt 0.841060 0.191147
vt 0.841265 0.191128
vn 0.000000 0.979792 -0.200021
vn 0.000000 0.979792 -0.200021
vn 0.000000 1.000000 0.000000
vn 0.000000 1.000000 0.000000
vn 0.000000 0.000000 -1.000000
vn 0.000000 0.000000 -1.000000
vn 0.000000 0.000000 -1.000000
vn 0.000000 0.000000 -1.000000
vn -0.922245 -0.386602 -0.001593
vn -0.981642 -0.166307 0.093388
vn -0.972661 -0.224690 0.058698
vn -0.998453 -0.021461 0.051296
vn -0.926896 -0.350738 0.133593
vn -0.891661 -0.004379 0.452683
vn -0.761013 -0.216600 0.611510
vn 0.926815 -0.351046 0.133349
vn 0.998499 -0.020531 0.050777
vn 0.973028 -0.223206 0.058276
vn 0.980982 -0.166813 0.099240
vn 0.922524 -0.385908 0.004937
vn 0.891501 -0.003542 0.453004
vn 0.972010 -0.045200 0.230550
vn 0.951758 -0.006064 0.306789
vn 0.774665 -0.219397 0.593093
vn -0.953330 -0.002367 0.301921
vn -0.974502 -0.041171 0.220569
vn 0.000000 0.999502 0.031543
vn 0.000000 0.197953 0.980212
vn 0.000000 0.198163 0.980169
vn 0.000000 0.999502 0.031543
vn 0.000000 -0.896190 -0.443671
vn 0.000000 -0.063220 -0.998000
vn 0.000000 -0.063220 -0.998000
vn 0.000000 -0.895180 -0.445705
vn 0.000000 0.000000 -1.000000
vn 0.000000 0.000000 -1.000000
vn 0.946622 -0.141848 0.289457
vn -0.947781 -0.139289 0.286897
vn 0.000000 0.375132 -0.926971
vn 0.000000 0.375132 -0.926971
vn 0.760669 -0.000000 -0.649140
vn 0.365046 -0.000000 -0.930990
vn 0.356467 0.000000 -0.934308
vn 0.777103 0.000000 -0.629374
vn 0.760114 -0.000001 -0.649789
vn 0.362795 -0.000000 -0.931869
vn 0.319560 -0.050527 -0.946218
vn 0.764858 -0.035289 -0.643232
vn 0.239639 -0.873513 -0.423731
vn -0.365046 -0.000000 -0.930990
vn -0.760669 -0.000000 -0.649140
vn -0.777103 0.000000 -0.629374
vn -0.356467 0.000000 -0.934308
vn -0.362796 -0.000000 -0.931869
vn -0.760116 -0.000001 -0.649788
vn -0.764969 -0.035566 -0.643084
vn -0.319561 -0.050527 -0.946218
vn -0.238870 -0.875349 -0.420363
vn 0.990166 -0.120106 0.071734
vn 0.468275 -0.761210 0.448640
vn 0.343359 -0.155940 0.926168
vn 0.955146 -0.049076 0.292042
vn 0.686580 -0.122244 0.716704
vn 0.984446 -0.171530 0.037996
vn 0.332644 -0.919321 0.210233
vn 0.999209 -0.017420 0.035736
vn 0.315054 -0.421408 0.850386
vn 0.987526 -0.043197 0.151416
vn 0.315299 -0.265138 0.911201
vn 0.325703 -0.899810 0.290275
vn 0.996013 -0.085332 0.026003
vn -0.361479 0.932380 0.000000
vn -0.944593 0.328243 0.000000
vn -0.936799 0.347258 0.042663
vn -0.323240 0.945989 0.024928
vn -0.323244 0.929289 -0.178704
vn -0.932582 0.355987 -0.059709
vn -0.309893 0.347908 -0.884831
vn -0.804277 0.204681 -0.557893
vn 0.944594 0.328242 0.000000
vn 0.361479 0.932380 0.000000
vn 0.323240 0.945989 0.024928
vn 0.936796 0.347269 0.042629
vn 0.932582 0.355986 -0.059709
vn 0.323244 0.929289 -0.178704
vn 0.804277 0.204681 -0.557893
vn 0.309893 0.347908 -0.884831
vn 0.999291 0.000000 0.037642
vn 0.343018 0.000001 0.939329
vn 0.300001 0.167170 0.939177
vn -0.342853 0.000001 0.939389
vn -0.999291 0.000000 0.037656
vn -0.999210 -0.017420 0.035712
vn -0.315270 -0.421944 0.850040
vn -0.299730 0.166899 0.939312
vn 0.996537 -0.083157 0.000000
vn 0.341836 -0.939760 0.000000
vn -0.342960 -0.939350 -0.000000
vn -0.996553 -0.082959 -0.000000
vn -0.326069 -0.899495 0.290839
vn -0.996019 -0.085260 0.026005
vn -0.315300 -0.265138 0.911201
vn -0.987526 -0.043197 0.151416
vn -0.984446 -0.171530 0.037996
vn -0.332644 -0.919321 0.210233
vn -0.468275 -0.761210 0.448640
vn -0.995486 -0.081482 0.048666
vn -0.988038 -0.025556 0.152080
vn -0.343359 -0.155940 0.926168
vn 0.993486 -0.108834 0.033766
vn -0.994059 -0.105163 0.028065
vn -1.000000 -0.000000 0.000000
vn -1.000000 -0.000000 0.000000
vn -1.000000 0.000000 0.000000
vn -1.000000 0.000000 0.000000
vn 1.000000 -0.000000 0.000000
vn 1.000000 -0.000000 0.000000
vn 1.000000 -0.000000 0.000000
vn 1.000000 -0.000000 0.000000
vn 1.000000 -0.000000 0.000000
vn 1.000000 0.000000 0.000000
vn -0.979994 -0.059964 0.189780
vn 0.978533 -0.063606 0.196028
vn 1.000000 -0.000000 0.000000
vn 1.000000 0.000000 -0.000000
vn 1.000000 0.000000 -0.000000
vn 1.000000 0.000000 0.000000
vn 1.000000 0.000000 0.000000
vn 1.000000 0.000000 0.000000
vn 1.000000 0.000000 -0.000000
vn 1.000000 0.000000 -0.000000
vn 1.000000 -0.000000 -0.000000
vn 1.000000 0.000000 0.000000
vn 1.000000 -0.000000 0.000000
vn 1.000000 -0.000000 0.000000
vn 1.000000 -0.000000 0.000000
vn 1.000000 -0.000000 0.000000
vn 1.000000 -0.000000 0.000000
vn 1.000000 -0.000000 0.000000
vn 1.000000 -0.000000 0.000000
vn 1.000000 -0.000000 0.000000
f 48/212/85 49/127/86 38/197/87 37/128/88
f 36/196/89 39/142/90 43/214/91 44/143/92
f 54/57/93 33/65/94 59/66/95 60/67/96 40/68/97
f 35/58/98 33/59/94 54/60/93 55/61/99
f 41/73/100 64/74/101 63/75/102 53/76/103 56/77/104
f 57/78/105 53/79/103 148/232/106 149/233/107
f 53/79/103 57/62/105 58/63/108 56/64/104
f 41/73/100 56/64/104 54/57/93 40/201/97
f 149/234/107 150/235/109 35/58/98 55/61/99 58/63/108 57/78/105
f 56/64/104 58/63/108 55/61/99 54/57/93
f 150/236/109 151/238/110 33/65/94 35/71/98
f 67/186/111 68/204/112 73/192/113 74/200/114
f 70/188/115 69/193/116 71/190/117 72/205/118
f 74/200/114 37/128/88 38/197/87 67/186/111
f 36/196/89 141/222/119 142/223/120 39/142/90
f 73/192/113 68/204/112 41/139/100 40/201/97
f 52/208/121 70/188/115 72/205/118 34/132/122
f 75/210/123 49/127/86 48/212/85 76/215/124
f 43/214/91 75/210/123 76/215/124 44/143/92
f 77/83/125 78/144/126 110/216/127 109/84/128
f 78/85/126 77/152/125 139/219/129 140/220/130
f 80/86/131 79/87/132 131/88/133
f 81/194/134 82/89/135 108/90/136 107/141/137
f 82/159/135 81/91/134 143/224/138 144/226/139
f 83/162/140 84/92/141 130/118/142
f 85/145/143 86/169/144 152/239/145 137/217/146 157/244/147
f 86/169/144 85/145/143 87/93/148 88/171/149
f 88/171/149 87/93/148 119/106/150 120/175/151
f 89/172/152 90/94/153 114/95/154 113/173/155
f 91/96/156 92/184/157 105/109/158 129/97/159
f 92/98/157 91/126/156 94/209/160 93/99/161
f 93/148/161 94/100/160 134/111/162 133/158/163
f 95/149/164 96/101/165 132/108/166 101/107/167
f 96/199/165 95/102/164 98/103/168 97/129/169
f 97/104/169 98/155/168 135/113/170 136/105/171
f 99/150/172 100/137/173 120/175/151 119/106/150
f 100/137/173 99/150/172 101/107/167 102/202/174
f 102/202/174 101/107/167 132/108/166
f 103/203/175 104/146/176 121/122/177 122/138/178
f 104/146/176 103/203/175 106/185/179 105/109/158
f 105/109/158 106/185/179 129/97/159
f 107/110/137 108/157/136 133/158/163 134/111/162
f 109/154/128 110/112/127 136/105/171 135/113/170
f 111/174/180 112/114/181 131/88/133 79/87/132
f 112/206/181 111/115/180 113/116/155 114/133/154
f 115/117/182 116/163/183 83/162/140 130/118/142
f 116/119/183 115/130/182 118/182/184 117/120/185
f 117/134/185 118/121/184 128/124/186 127/135/187
f 122/138/178 121/122/177 125/125/188 126/180/189
f 123/123/190 124/140/191 146/228/192 147/229/193
f 124/140/191 123/165/190 126/180/189 125/125/188
f 91/126/156 38/197/87 49/127/86 94/209/160
f 37/128/88 96/199/165 97/129/169 48/212/85
f 115/130/182 52/208/121 66/131/194 118/182/184
f 34/132/122 112/206/181 114/133/154 62/178/195
f 124/140/191 51/161/196 145/227/197 146/228/192
f 60/136/96 120/175/151 100/137/173 40/201/97
f 122/138/178 64/181/101 41/139/100 103/203/175
f 51/161/196 124/140/191 42/147/198 50/160/199
f 107/141/137 43/214/91 39/142/90 81/194/134
f 44/143/92 110/216/127 78/144/126 36/196/89
f 45/151/200 85/145/143 164/251/201 46/153/202 47/156/203
f 45/151/200 99/150/172 119/106/150 87/93/148 85/145/143
f 104/146/176 42/147/198 124/140/191 125/125/188 121/122/177
f 50/160/199 42/147/198 92/184/157 93/148/161
f 95/149/164 45/151/200 47/156/203 98/155/168
f 95/149/164 101/107/167 99/150/172 45/151/200
f 138/218/204 139/219/129 77/152/125 46/153/202 160/247/205
f 47/156/203 46/153/202 77/152/125 109/154/128
f 98/155/168 47/156/203 109/154/128 135/113/170
f 108/157/136 50/160/199 93/148/161 133/158/163
f 82/159/135 51/161/196 50/160/199 108/157/136
f 51/161/196 82/159/135 144/226/139 145/227/197
f 63/164/102 126/180/189 123/165/190 53/167/103
f 123/165/190 147/230/193 148/231/106 53/167/103
f 151/237/110 152/239/145 86/169/144 33/170/94
f 33/170/94 86/169/144 88/171/149 59/176/95
f 88/171/149 120/175/151 60/136/96 59/176/95
f 61/177/206 62/178/195 114/133/154 90/179/153
f 122/138/178 126/180/189 63/164/102 64/181/101
f 128/166/186 118/182/184 66/131/194 65/183/207
f 105/109/158 92/184/157 42/147/198 104/146/176
f 129/198/159 106/185/179 68/204/112 67/186/111
f 130/207/142 84/187/141 69/193/116 70/188/115
f 80/195/131 131/189/133 72/205/118 71/190/117
f 102/202/174 132/191/166 74/200/114 73/192/113
f 39/142/90 142/223/120 143/225/138 81/194/134
f 78/144/126 140/221/130 141/222/119 36/196/89
f 67/186/111 38/197/87 91/126/156 129/198/159
f 96/199/165 37/128/88 74/200/114 132/191/166
f 40/201/97 100/137/173 102/202/174 73/192/113
f 103/203/175 41/139/100 68/204/112 106/185/179
f 72/205/118 131/189/133 112/206/181 34/132/122
f 130/207/142 70/188/115 52/208/121 115/130/182
f 134/213/162 94/209/160 49/127/86 75/210/123
f 97/129/169 136/211/171 76/215/124 48/212/85
f 134/213/162 75/210/123 43/214/91 107/141/137
f 76/215/124 136/211/171 110/216/127 44/143/92
f 89/172/152 113/173/155 111/174/180 138/218/204 161/248/208 137/217/146
f 111/174/180 79/87/132 139/219/129 138/218/204
f 140/220/130 139/219/129 79/87/132 80/86/131
f 141/222/119 140/221/130 80/195/131 71/190/117
f 142/223/120 141/222/119 71/190/117 69/193/116
f 143/225/138 142/223/120 69/193/116 84/187/141
f 144/226/139 143/224/138 84/92/141 83/162/140
f 145/227/197 144/226/139 83/162/140 116/163/183
f 146/228/192 145/227/197 116/163/183 117/134/185 127/135/187
f 147/229/193 146/228/192 127/135/187 128/124/186
f 148/231/106 147/230/193 128/166/186 65/183/207
f 149/233/107 148/232/106 65/80/207 66/81/194 52/82/121
f 34/72/122 150/235/109 149/234/107 52/208/121
f 62/69/195 61/70/206 151/238/110 150/236/109 34/72/122
f 61/168/206 90/94/153 152/239/145 151/237/110
f 137/217/146 152/239/145 90/94/153 89/172/152
f 137/217/146 161/248/208 162/249/209 153/240/210
f 159/246/211 160/247/205 46/153/202 155/242/212
f 163/250/213 164/251/201 85/145/143 156/243/214
f 85/145/143 157/244/215 158/245/216 156/243/214
f 158/245/216 157/244/215 137/217/146 153/240/210
f 138/218/204 160/247/205 159/246/211 154/241/217
f 162/249/209 161/248/208 138/218/204 154/241/217
f 46/153/202 164/251/201 163/250/213 155/242/212
f 162/249/218 154/241/219 159/246/220 155/242/221 163/250/222 156/243/223 158/245/224 153/240/225
